<svg xmlns="http://www.w3.org/2000/svg" enable-background="new 0 0 100 100" viewBox="0 0 100 100" id="work-in-progress"><g><path fill="#e78125" d="M95.7,72.5L61.8,13.9c-1.2-2.2-3-3.9-5.2-5.1C54.6,7.6,52.3,7,50,7
			c-2.3,0-4.6,0.6-6.6,1.7c-1.6,0.9-3,2.1-4.1,3.5l-0.1,0.2l-4,6.7L4.3,72.5c-1.2,2.2-1.9,4.6-1.8,7.1c0,2.3,0.7,4.6,1.8,6.6
			c1.2,2,2.8,3.7,4.8,4.9c2.1,1.3,4.5,1.9,7,1.9h67.7c2.5,0,4.9-0.7,7-1.9c2-1.2,3.6-2.9,4.8-4.9c1.2-2,1.8-4.3,1.8-6.6
			C97.5,77.1,96.9,74.6,95.7,72.5z M90.1,82.5c-1.6,2.8-4.6,4.5-7.8,4.5H17.7c-3.3,0-6.2-1.7-7.8-4.5c-1.6-2.8-1.6-6.2,0-9l32.3-56
			c1.6-2.8,4.6-4.5,7.8-4.5c3.3,0,6.2,1.7,7.8,4.5l32.3,56C91.8,76.3,91.8,79.7,90.1,82.5z"></path><path fill="#e78125" d="M48.7 60.9c1.7-1.4 3-2.4 4.4-3.5-1-1.1-2-2.1-3.2-3.3C49.4 56.5 49.1 58.5 48.7 60.9zM60 50.7c.4-1.3.8-2.5 1.2-3.9-1.5.3-2.8.6-4.3.9C58.1 48.8 59 49.7 60 50.7z"></path><path fill="#e78125" d="M87.1,75.2l-16.2-28l-16.2-28c-2.1-3.7-7.4-3.7-9.6,0l-16.2,28
			l-16.2,28c-2.1,3.7,0.5,8.3,4.8,8.3H50h32.3C86.6,83.5,89.2,78.9,87.1,75.2z M44,39c2.4,0,4.3,1.9,4.3,4.3c0,2.4-1.9,4.3-4.3,4.3
			c-2.4,0-4.3-1.9-4.3-4.3C39.7,41,41.6,39,44,39z M67.1,78.5c-1.2,1.4-3.3,0.4-3.7-1.1c-1-3.3-2.3-6.5-2.6-9.9
			c-0.1-1.7-0.4-3.3-0.6-5.4c-1.5,1.1-2.7,1.9-3.8,2.9c-1.3,1.1-1,2.4-0.4,3.7c1.2,2.4,2.4,4.8,3.6,7.2c0.8,1.4,0.7,2.8-0.6,3.6
			c-1.6,1-2.6,0-3.4-1.4c-1.6-3-3.3-6-4.9-9c-1-1.9-0.9-3.7,0.6-5.4c1.2-1.3,2.4-2.7,3.7-4C55,59,54.6,58.7,54,58.4
			c-3.1,2.5-6.1,4.9-9.2,7.4c-0.1,1.2,2.4,1.9,0.4,3.4c3.8,1.1,4.3,4.5,5.8,7.6H24.3c-0.2-3.3,0.4-4.3,3.3-5.7
			c0.6-0.3,1.3-0.5,1.6-1.1c1.8-4.1,5.9-4.2,9.5-5.1c0.6-0.2,1.2-0.3,1.6-0.7c1.4-1.4,2.5-1.4,3.4,0.5c1-0.2,1.5-0.9,2.4-1.6
			c-1.8-0.8-1.8-2.2-1.4-3.8c0.7-3.3,1.1-6.7,1.7-10.1c0-0.1,0-0.3,0.1-0.4c1.7-0.8,3-2.4,3.4-4.3c1.5-0.8,3-1,4.6-1
			c2.4-0.1,4.7-0.9,7.2-0.7c2.6,0.2,4.3,1.4,3.9,3.9c-0.5,2.5-1.1,4.8-2.6,7.9c2.9,2.3,3.1,5.4,2.6,8.6c-0.5,3.5-0.2,6.8,1.2,10
			C67.3,74.6,68.4,77,67.1,78.5z"></path><g><path fill="#1b3342" d="M95.7,72.5L61.8,13.9c-1.2-2.2-3-3.9-5.2-5.1C54.6,7.6,52.3,7,50,7
			c-2.3,0-4.6,0.6-6.6,1.7c-1.6,0.9-3,2.1-4.1,3.5l-0.1,0.2l-4,6.7L4.3,72.5c-1.2,2.2-1.9,4.6-1.8,7.1c0,2.3,0.7,4.6,1.8,6.6
			c1.2,2,2.8,3.7,4.8,4.9c2.1,1.3,4.5,1.9,7,1.9h67.7c2.5,0,4.9-0.7,7-1.9c2-1.2,3.6-2.9,4.8-4.9c1.2-2,1.8-4.3,1.8-6.6
			C97.5,77.1,96.9,74.6,95.7,72.5z M90.1,82.5c-1.6,2.8-4.6,4.5-7.8,4.5H17.7c-3.3,0-6.2-1.7-7.8-4.5c-1.6-2.8-1.6-6.2,0-9l32.3-56
			c1.6-2.8,4.6-4.5,7.8-4.5c3.3,0,6.2,1.7,7.8,4.5l32.3,56C91.8,76.3,91.8,79.7,90.1,82.5z"></path><path fill="#347abd" d="M48.7 60.9c1.7-1.4 3-2.4 4.4-3.5-1-1.1-2-2.1-3.2-3.3C49.4 56.5 49.1 58.5 48.7 60.9zM60 50.7c.4-1.3.8-2.5 1.2-3.9-1.5.3-2.8.6-4.3.9C58.1 48.8 59 49.7 60 50.7z"></path><path fill="#347abd" d="M87.1,75.2l-16.2-28l-16.2-28c-2.1-3.7-7.4-3.7-9.6,0l-16.2,28
			l-16.2,28c-2.1,3.7,0.5,8.3,4.8,8.3H50h32.3C86.6,83.5,89.2,78.9,87.1,75.2z M44,39c2.4,0,4.3,1.9,4.3,4.3c0,2.4-1.9,4.3-4.3,4.3
			c-2.4,0-4.3-1.9-4.3-4.3C39.7,41,41.6,39,44,39z M67.1,78.5c-1.2,1.4-3.3,0.4-3.7-1.1c-1-3.3-2.3-6.5-2.6-9.9
			c-0.1-1.7-0.4-3.3-0.6-5.4c-1.5,1.1-2.7,1.9-3.8,2.9c-1.3,1.1-1,2.4-0.4,3.7c1.2,2.4,2.4,4.8,3.6,7.2c0.8,1.4,0.7,2.8-0.6,3.6
			c-1.6,1-2.6,0-3.4-1.4c-1.6-3-3.3-6-4.9-9c-1-1.9-0.9-3.7,0.6-5.4c1.2-1.3,2.4-2.7,3.7-4C55,59,54.6,58.7,54,58.4
			c-3.1,2.5-6.1,4.9-9.2,7.4c-0.1,1.2,2.4,1.9,0.4,3.4c3.8,1.1,4.3,4.5,5.8,7.6H24.3c-0.2-3.3,0.4-4.3,3.3-5.7
			c0.6-0.3,1.3-0.5,1.6-1.1c1.8-4.1,5.9-4.2,9.5-5.1c0.6-0.2,1.2-0.3,1.6-0.7c1.4-1.4,2.5-1.4,3.4,0.5c1-0.2,1.5-0.9,2.4-1.6
			c-1.8-0.8-1.8-2.2-1.4-3.8c0.7-3.3,1.1-6.7,1.7-10.1c0-0.1,0-0.3,0.1-0.4c1.7-0.8,3-2.4,3.4-4.3c1.5-0.8,3-1,4.6-1
			c2.4-0.1,4.7-0.9,7.2-0.7c2.6,0.2,4.3,1.4,3.9,3.9c-0.5,2.5-1.1,4.8-2.6,7.9c2.9,2.3,3.1,5.4,2.6,8.6c-0.5,3.5-0.2,6.8,1.2,10
			C67.3,74.6,68.4,77,67.1,78.5z"></path></g></g></svg>